PathFileType  4	(X/Y/Z) C:\Users\antoi\Documents\MyRepositories\mobilecap\ResultsAnalysis
DataRate	CameraRate	NumFrames	NumMarkers	Units	OrigDataRate	OrigDataStartFrame	OrigNumFrames
100.0	100.0	6	51	mm	100.0	669	1336
Frame#	Time	r_knee			r_shank_antsup			r_ankle			r_calc			r_5meta			r_toe			L_knee			L_shank_antsup			L_ankle			L_calc			L_5meta			L_toe			r_sh2			r_sh3			r_sh4			L_sh2			L_sh3			r_thigh1			r_thigh2			r_thigh3			r_thigh4			r_thigh5			L_thigh1			L_thigh2			L_thigh3			L_thigh4			r.ASIS			r.PSIS			L.ASIS			L.PSIS			C7			R_Shoulder			L_Shoulder			R_Sternum			L_Sternum			R_humerus			R_elbow_med			R_elbow_lat			R_forearm			R_wrist_radius			R_wrist_ulna			L_humerus			L_elbow_med			L_elbow_lat			L_forearm			L_wrist_radius			L_wrist_ulna			R_HJC			L_HJC			R_HJC_reg			L_HJC_reg			
		X1	Y1	Z1	X2	Y2	Z2	X3	Y3	Z3	X4	Y4	Z4	X5	Y5	Z5	X6	Y6	Z6	X7	Y7	Z7	X8	Y8	Z8	X9	Y9	Z9	X10	Y10	Z10	X11	Y11	Z11	X12	Y12	Z12	X13	Y13	Z13	X14	Y14	Z14	X15	Y15	Z15	X16	Y16	Z16	X17	Y17	Z17	X18	Y18	Z18	X19	Y19	Z19	X20	Y20	Z20	X21	Y21	Z21	X22	Y22	Z22	X23	Y23	Z23	X24	Y24	Z24	X25	Y25	Z25	X26	Y26	Z26	X27	Y27	Z27	X28	Y28	Z28	X29	Y29	Z29	X30	Y30	Z30	X31	Y31	Z31	X32	Y32	Z32	X33	Y33	Z33	X34	Y34	Z34	X35	Y35	Z35	X36	Y36	Z36	X37	Y37	Z37	X38	Y38	Z38	X39	Y39	Z39	X40	Y40	Z40	X41	Y41	Z41	X42	Y42	Z42	X43	Y43	Z43	X44	Y44	Z44	X45	Y45	Z45	X46	Y46	Z46	X47	Y47	Z47	X48	Y48	Z48	X49	Y49	Z49	X50	Y50	Z50	X51	Y51	Z51	

669	6.68000000	-319.56476	542.76461	-453.22421	-296.20237	466.98665	-431.38919	-338.30656	103.35737	-437.27737	-392.65011	52.31329	-487.01313	-201.81450	39.07881	-380.20309	-160.39511	63.15622	-436.19280	-312.11974	542.63922	-779.71833	-285.29940	425.41788	-791.47771	-349.69811	97.24604	-770.50041	-414.19317	47.24229	-728.17024	-201.44955	33.28367	-818.61062	-171.79117	59.44291	-755.65858	-296.32812	354.49194	-417.41537	-370.09397	467.06097	-422.22755	-378.45572	351.20462	-418.08980	-372.75603	438.06634	-808.86176	-375.34863	316.86800	-807.24190	-267.08143	868.45973	-433.97340	-251.42479	756.92777	-438.93770	-303.23907	723.49227	-415.01021	-379.85277	846.26007	-438.87769	-355.82449	731.46757	-432.44551	-256.74416	869.23245	-804.22220	-242.40092	728.91574	-795.91592	-372.07576	854.92911	-812.05835	-350.89589	716.95256	-807.27736	-241.87138	1055.70698	-491.25565	-429.14448	1108.74388	-572.82105	-240.73392	1053.12935	-752.36150	-428.51563	1109.16085	-678.35621	-429.06095	1608.15559	-629.22327	-352.58802	1579.45877	-447.53688	-344.56532	1589.22606	-790.78751	-273.62192	1557.70319	-593.80139	-270.31882	1554.87052	-646.05475	-362.97286	1306.99229	-359.37206	-412.76064	1219.11192	-429.08629	-386.62984	1221.98205	-349.73900	-321.14338	1076.38572	-340.34273	-280.25778	966.83328	-353.41569	-321.96638	966.21610	-336.84802	-332.84653	1323.96070	-871.91857	-392.87391	1240.97367	-820.93461	-355.58817	1238.32732	-876.98126	-303.69681	1075.17438	-880.58609	-272.79936	981.61497	-865.07921	-308.52312	974.66822	-880.45876	-332.26159	983.60556	-500.15013	-327.55753	981.62246	-730.46155	-320.64547	983.48497	-529.08935	-319.61859	984.16572	-701.42471	
670	6.69000000	-319.75499	542.75741	-453.18504	-296.36314	466.88856	-431.45721	-338.37118	103.31896	-437.30663	-392.65783	52.30220	-487.06315	-201.82259	39.08101	-380.20173	-160.41429	63.10504	-436.18226	-312.08645	542.29912	-779.42755	-285.16805	425.27619	-791.50411	-349.72732	97.14832	-770.51735	-414.24046	47.12920	-728.20781	-201.46708	33.19841	-818.58466	-171.84519	59.41896	-755.71541	-296.53104	354.44102	-417.48293	-370.21271	467.10186	-422.23240	-378.61713	351.24536	-417.99211	-372.56811	438.00880	-809.09312	-375.24089	316.69205	-807.41559	-267.22726	868.20097	-434.28321	-251.51378	756.82809	-438.89009	-303.42810	723.53835	-414.89204	-380.01280	846.15627	-438.91494	-356.01699	731.49098	-432.37012	-257.14580	869.18797	-804.83928	-242.23537	728.94786	-796.17669	-371.96677	854.73813	-812.04603	-350.81399	716.53077	-807.00766	-241.90950	1055.52907	-491.45736	-429.08744	1108.88003	-573.01858	-240.74368	1052.96293	-752.45557	-428.46882	1109.22235	-678.43579	-428.54914	1608.13600	-629.14898	-352.25636	1579.15724	-447.51527	-344.11419	1588.88235	-790.89073	-273.16738	1557.57364	-593.79959	-269.85883	1554.72362	-646.13031	-363.26874	1306.69007	-359.45346	-413.12378	1218.94172	-429.04561	-386.92295	1221.67102	-349.80766	-321.36151	1076.19296	-340.39978	-280.35982	966.65655	-353.48475	-322.01084	965.99644	-336.82975	-332.84040	1323.62443	-872.05216	-393.03709	1240.74603	-820.96762	-355.73102	1238.04188	-877.22539	-303.90577	1074.87319	-880.67344	-273.14081	981.23740	-865.02460	-308.89336	974.24081	-880.17809	-332.39158	983.56917	-500.28996	-327.68526	981.57146	-730.60122	-320.79195	983.56545	-529.21591	-319.78109	984.12465	-701.48076	
671	6.70000000	-319.82528	542.74144	-453.13819	-296.40891	466.79905	-431.51590	-338.42709	103.29256	-437.25400	-392.67684	52.26474	-487.07948	-201.82978	39.05145	-380.19079	-160.42874	63.04946	-436.15701	-312.05961	541.80560	-778.92616	-284.87129	425.18290	-791.62051	-349.73474	97.07487	-770.53326	-414.25047	47.01538	-728.27211	-201.47276	33.17258	-818.65081	-171.85156	59.36332	-755.72159	-296.66881	354.25558	-417.44773	-370.30012	467.14327	-422.19535	-378.75180	351.26291	-417.94442	-372.25289	437.97014	-809.29674	-374.99756	316.67504	-807.68906	-267.48435	868.09783	-434.51004	-251.60231	756.77021	-438.86066	-303.58090	723.51356	-414.92572	-380.23365	846.01467	-438.80837	-356.19901	731.42550	-432.34715	-257.02257	869.21147	-804.62916	-242.01837	728.96228	-796.29472	-371.86904	854.52366	-812.10333	-350.57960	716.48776	-807.37197	-242.05933	1055.33891	-491.63748	-429.11104	1109.03869	-573.24860	-240.82009	1052.81054	-752.58604	-428.51599	1109.26874	-678.56766	-427.95032	1608.17872	-629.07671	-351.90996	1578.86246	-447.56522	-343.68719	1588.56979	-790.84967	-272.67341	1557.44067	-593.92460	-269.36018	1554.49885	-646.17353	-363.62728	1306.42366	-359.59487	-413.52454	1218.96447	-429.16027	-387.30948	1221.37844	-349.84413	-321.62632	1075.95520	-340.53644	-280.57915	966.50865	-353.58278	-322.15956	965.87552	-336.77833	-332.92947	1323.34408	-872.11842	-393.29036	1240.58896	-820.99844	-355.97965	1237.82546	-877.42849	-304.27867	1074.61440	-880.72814	-273.59439	980.81297	-864.89374	-309.30664	973.85374	-879.85632	-332.63113	983.53135	-500.45736	-327.88542	981.52619	-730.76777	-321.04651	983.69268	-529.29543	-320.07347	984.06891	-701.52837	
672	6.71000000	-319.82217	542.68076	-453.13499	-296.39294	466.74237	-431.54181	-338.47051	103.23030	-437.14382	-392.69938	52.21821	-487.05854	-201.84068	39.01251	-380.17192	-160.42843	63.01876	-436.11826	-311.84140	541.50991	-778.70050	-284.45923	425.10868	-791.80887	-349.72039	97.03622	-770.55914	-414.25574	46.93895	-728.36665	-201.47500	33.17562	-818.74740	-171.84312	59.29047	-755.69359	-296.67216	354.07767	-417.35352	-370.31778	467.13103	-422.13881	-378.77699	351.24019	-417.89797	-371.88198	437.88306	-809.40024	-374.63285	316.74480	-808.03262	-267.69372	867.91536	-434.62567	-251.70226	756.74109	-438.92579	-303.66095	723.43712	-414.97591	-380.46988	845.92522	-438.66701	-356.33104	731.33142	-432.32048	-256.79563	869.22589	-804.28683	-241.80423	728.95768	-796.26732	-371.78841	854.35502	-812.27747	-350.31020	716.49879	-807.81143	-242.32317	1055.12615	-491.85772	-429.28356	1109.09628	-573.53419	-240.94132	1052.67731	-752.72684	-428.64820	1109.30527	-678.79457	-427.33597	1608.28527	-629.08644	-351.52370	1578.66281	-447.60757	-343.20477	1588.40197	-790.80700	-272.12916	1557.26600	-594.03253	-268.81126	1554.25000	-646.16775	-364.05985	1306.24220	-359.75421	-413.71186	1218.94343	-429.23421	-387.77130	1221.19219	-349.89414	-321.92789	1075.72187	-340.65870	-280.94376	966.35771	-353.71738	-322.45043	965.73470	-336.86568	-333.10645	1323.12806	-872.19671	-393.65724	1240.54833	-821.11140	-356.34848	1237.69091	-877.59229	-304.84617	1074.37094	-880.65421	-274.12757	980.48219	-864.78566	-309.78373	973.62178	-879.71779	-332.97716	983.43501	-500.69883	-328.11682	981.48152	-731.00728	-321.37896	983.68111	-529.51931	-320.33968	984.02306	-701.69949	
673	6.72000000	-319.77173	542.60392	-453.16988	-296.34159	466.73419	-431.47756	-338.53963	103.10827	-437.12816	-392.71165	52.17569	-487.02243	-201.85162	38.97543	-380.14200	-160.43240	63.01068	-436.08152	-311.42656	541.39235	-778.64588	-284.07124	424.98867	-791.88116	-349.70016	97.01442	-770.59290	-414.31594	46.89728	-728.50570	-201.48191	33.14507	-818.76238	-171.88408	59.22026	-755.67403	-296.55266	354.03133	-417.26077	-370.23888	467.07109	-422.10435	-378.63038	351.18362	-417.73954	-371.54560	437.78767	-809.44012	-374.27550	316.76965	-808.34558	-267.78285	867.37945	-434.73221	-251.78421	756.73263	-438.97769	-303.67860	723.38998	-414.96797	-380.55814	845.79691	-438.72946	-356.40528	731.25674	-432.20710	-256.71284	869.23705	-804.29782	-241.62666	728.98128	-796.23206	-371.70640	854.26812	-812.54213	-350.10165	716.43313	-808.01418	-242.67369	1054.92960	-492.05816	-429.58703	1109.08495	-573.86105	-241.09382	1052.54529	-752.81068	-428.81226	1109.31518	-679.09840	-426.68844	1608.38651	-629.22398	-351.07887	1578.54075	-447.63479	-342.64676	1588.37454	-790.84656	-271.56291	1557.06024	-594.03453	-268.22006	1554.08390	-646.10484	-364.51285	1306.12534	-359.81167	-413.78745	1218.84043	-429.22925	-388.22159	1221.08576	-350.01438	-322.32544	1075.54721	-340.77651	-281.37622	966.21385	-353.84509	-322.90017	965.55532	-337.07685	-333.34961	1322.99607	-872.29644	-394.03146	1240.59558	-821.27741	-356.82475	1237.61338	-877.65788	-305.54336	1074.12871	-880.50122	-274.75330	980.31538	-864.78099	-310.39419	973.53875	-879.84816	-333.41320	983.32328	-500.94734	-328.34414	981.41683	-731.25165	-321.80331	983.59312	-529.82009	-320.53623	983.96957	-701.92194	
674	6.73000000	-319.69387	542.54215	-453.25253	-296.25513	466.75621	-431.36331	-338.60181	103.04563	-437.19801	-392.71410	52.13787	-486.97942	-201.86067	38.94005	-380.11314	-160.44993	62.99891	-436.05434	-311.01198	541.20995	-778.42185	-283.77751	424.83504	-791.79639	-349.68796	97.00261	-770.60986	-414.37234	46.87212	-728.60769	-201.48626	33.11897	-818.74223	-171.92624	59.17852	-755.65605	-296.37086	354.08026	-417.19004	-370.12151	467.00068	-422.08893	-378.41564	351.10326	-417.54965	-371.30091	437.74894	-809.46603	-374.03754	316.78244	-808.54131	-267.87982	867.08846	-434.93322	-251.92032	756.74466	-439.08627	-303.70414	723.37814	-414.98462	-380.55210	845.54119	-439.02710	-356.47367	731.14226	-432.09712	-256.69586	869.26102	-804.58458	-241.46979	729.03549	-796.25574	-371.61933	854.23785	-812.82186	-349.93039	716.35605	-808.03851	-243.06534	1054.78523	-492.15044	-429.91900	1109.08731	-574.18082	-241.26980	1052.42042	-752.82453	-428.96692	1109.31370	-679.47538	-425.80617	1608.41992	-629.54227	-350.58696	1578.40944	-447.71513	-342.04667	1588.42446	-790.96180	-271.01609	1556.85554	-593.99206	-267.61972	1553.96586	-646.00065	-364.91504	1306.03862	-359.80457	-414.01798	1218.66854	-429.36576	-388.59645	1220.98847	-350.17662	-322.86841	1075.45380	-340.91377	-281.84969	966.10046	-353.99298	-323.48945	965.41199	-337.32181	-333.65026	1322.98856	-872.39274	-394.30818	1240.67979	-821.31739	-357.32617	1237.58254	-877.59896	-306.27803	1073.95203	-880.44610	-275.50721	980.27938	-864.85034	-311.16516	973.49372	-880.02053	-333.90083	983.25798	-501.14302	-328.54689	981.34176	-731.44082	-322.28124	983.53463	-530.03047	-320.72566	983.90444	-702.07901	
